PathFileType	4	(X/Y/Z)	37_1_4_p0_0-200_filt_butterworth.trc
DataRate	CameraRate	NumFrames	NumMarkers	Units	OrigDataRate	OrigDataStartFrame	OrigNumFrames
60.0	60.0	5	27	m	60.0	25	200
Frame#	Time	RHip			RKnee			RAnkle			RBigToe			RSmallToe			RHeel			LHip			LKnee			LAnkle			LBigToe			LSmallToe			LHeel			Neck			Head			Nose			RShoulder			RElbow			RWrist			RThumb			RIndex			RPinky			LShoulder			LElbow			LWrist			LThumb			LIndex			LPinky			
		X1	Y1	Z1	X2	Y2	Z2	X3	Y3	Z3	X4	Y4	Z4	X5	Y5	Z5	X6	Y6	Z6	X7	Y7	Z7	X8	Y8	Z8	X9	Y9	Z9	X10	Y10	Z10	X11	Y11	Z11	X12	Y12	Z12	X13	Y13	Z13	X14	Y14	Z14	X15	Y15	Z15	X16	Y16	Z16	X17	Y17	Z17	X18	Y18	Z18	X19	Y19	Z19	X20	Y20	Z20	X21	Y21	Z21	X22	Y22	Z22	X23	Y23	Z23	X24	Y24	Z24	X25	Y25	Z25	X26	Y26	Z26	X27	Y27	Z27	
25	0.4166666666666667	0.3690808380442052	0.6450452209817634	0.5056535045496444	0.3591164315700154	0.8479802623796465	0.9526219346429072	0.3866012595329128	1.0402954725461615	1.3760254199002093	0.32120577272793105	0.8647725427100474	1.4270112316385375	0.38429286209422775	0.8742465824493785	1.4314509150087829	0.3733142806600157	1.1644976212528044	1.430766779214057	0.18807057575522546	0.7253112614935885	0.5024042518975518	0.19471266346888316	0.8991442862735672	0.9465772775625598	0.19278638383526062	1.0624415523110593	1.3676540299591764	0.1661987883780217	0.871207219820791	1.41044368683139	0.12149232454655952	0.9524484392053721	1.4193748223771527	0.2100339301372401	1.124895315763836	1.4242175820632994	0.28310391220982795	0.5498643291637386	-0.031111241333583742	0.26711928625665	0.4058210250677171	-0.24161324684452262	0.25920355345324275	0.3761513442250924	-0.1044369772954336	0.4278109511060585	0.5624112438920987	0.07480049395652488	0.44301473069191544	0.5252162059505286	0.3538467129315653	0.28573641065659006	0.4761814423090057	0.5338164136525819	0.1796263934349749	0.5016747713645949	0.6088422720532493	0.1833152184678864	0.5039848939825831	0.614369560146282	0.2104699827147921	0.46304347751250163	0.618127296359205	0.13339360359810937	0.6511033471205674	0.03525741069133556	0.09583230520140049	0.6263933281570072	0.3058240316189309	0.17834859184919252	0.47936697385878024	0.5191219119131639	0.2016486118017385	0.4471141174502527	0.5970289075289453	0.20748652334090384	0.4368236572507701	0.6117060613667904	0.19707397268604543	0.4894143389788849	0.614782621611281
26	0.4333333333333333	0.3692268715932835	0.6516502657300207	0.5072743647645961	0.3585023795977018	0.8474147889391184	0.9514938466613443	0.38659675339569444	1.040265991295653	1.3760242868358794	0.31939450715879636	0.8600190998429934	1.4255090869780407	0.38212754159697426	0.8694141859463071	1.4299592572056714	0.37338676707937074	1.164616661545704	1.4324602002075468	0.1882086054786629	0.7252315046927205	0.5038695753234453	0.19461951714107575	0.8988408486923241	0.9459571177337446	0.19263354289336415	1.0623889344276152	1.3676816637825666	0.16620330905616698	0.8711405512285908	1.4102899846122194	0.12153500512767987	0.9510914296519193	1.4193691043260348	0.20989689901948155	1.124462550451534	1.42409769802511	0.2830969443679709	0.5498641905813844	-0.031118442242877627	0.2666206695660983	0.40448749946188894	-0.2412758862812271	0.2592647280416408	0.3762887780213601	-0.10448869812083356	0.4274169614541413	0.5637764036122623	0.07463021072014384	0.4457036987647549	0.5290223526358101	0.3551544654480959	0.2853354301682783	0.4738940843965568	0.5321705185739886	0.17942723224942714	0.5024379760183197	0.6069073730731145	0.18374588810062725	0.5039322553181457	0.6143215559492364	0.20858198185245985	0.462537653430313	0.616587490338433	0.13342705802732055	0.6513040776001304	0.03562723061854686	0.09548737750916565	0.6265013857683072	0.30638622212003785	0.17780024706800412	0.4787929886513763	0.5194133949473513	0.20269577586451243	0.45527751074431244	0.597546264554587	0.20785029960456433	0.44138542731172953	0.6122166362039851	0.19719412601824274	0.48875490601855265	0.6137689331254024
27	0.45	0.37051466296700925	0.6596417728940215	0.5102015304769414	0.3576518077983736	0.8456613442412072	0.9506560049783626	0.3866004526054236	1.0402217154120763	1.3760148493465454	0.318022006715053	0.8564389557630077	1.4243844055179091	0.3800131429597671	0.8657160357732541	1.428798386414384	0.3735354769227243	1.164656933280375	1.4329906667314523	0.18819449342658445	0.7256687242839039	0.5068514886952376	0.19501952128228656	0.8948453033948492	0.9455577655423375	0.19254756304158	1.0623689734704211	1.367753130900811	0.16620470359209072	0.8710719636390277	1.4102635716289174	0.12152292865558703	0.9490544365722458	1.4193570549265078	0.20983037709118751	1.124336675616804	1.4240434896495664	0.2830847442782708	0.5498274620377596	-0.03113738292937672	0.26719405036230187	0.40134854437401535	-0.24054744379107418	0.2593078075543958	0.37658969396215286	-0.10542717028716404	0.42724747243001054	0.5643353695150815	0.0745407683773044	0.44834684133679925	0.5318182872727277	0.35643530113877375	0.28460904527332986	0.46982381583701804	0.5292824985780736	0.1782415173741027	0.5019942139003809	0.6018904981593366	0.1823247692365112	0.5032051527530808	0.6136783690857505	0.20720443401327912	0.46144004370284425	0.6146057359584558	0.1334651949635734	0.6515958982875165	0.03612304854772098	0.0935239817905118	0.6265296618565206	0.30676414861542883	0.17799253855018374	0.47805190828114474	0.5182252851147234	0.20387142902510869	0.46804180455944594	0.5969081886678713	0.20701771437763272	0.4489806190485691	0.6120345124976835	0.19756268302104116	0.48506898588716013	0.6108244667381006
28	0.4666666666666667	0.3733232011564752	0.6687257604256246	0.5132927669006827	0.3564195087421263	0.8419788858934881	0.9500438879670645	0.3866003791452999	1.0401745784039726	1.3760065842374543	0.3174826214715154	0.8550509385558911	1.4239497509797912	0.37895783914467346	0.8642770484254634	1.4283403142379685	0.37365021266023385	1.1646576208043424	1.4329156944058117	0.18785429021606578	0.7274819243612606	0.5116163934361844	0.19562121857792183	0.8905805958948102	0.945276791417174	0.19255252402205467	1.0623063963020534	1.3677104556079407	0.1661927964991023	0.8709874153785944	1.410241104884861	0.12109763933222578	0.9480683870715103	1.4193129122665094	0.20982016658821145	1.1244285271035523	1.4240667763800787	0.28307109784632545	0.5497858640751255	-0.03111274926424303	0.26853791030322943	0.3973210231250208	-0.23964226866128976	0.25931353454715717	0.37761112365748306	-0.10705912830358981	0.4272397404601453	0.5643272530565738	0.07450613718693187	0.45044032506295717	0.5333871899281677	0.3556975749762614	0.2838432484703011	0.4653275160981819	0.5246790036484931	0.17582500486179525	0.4991965244771159	0.5915417618069196	0.1775604400297582	0.5013581313085518	0.6098994412302092	0.20555053552418992	0.4609303003707639	0.612835877410085	0.13347060055915455	0.651717919837686	0.03629660187497899	0.08915926636059718	0.6263457075442113	0.306694094087355	0.1793286277018096	0.4775724634569277	0.5135573567447035	0.20480136509382915	0.47934328701158707	0.5914560109186291	0.20486579713945025	0.4571053010117836	0.6093840788062226	0.19779693657815878	0.4807160761789887	0.6051793398243965
29	0.4833333333333333	0.3770656479452877	0.6784607976498889	0.5162118289616452	0.35443293765002826	0.8370753313760629	0.9492920696649181	0.3865890862836649	1.0401367436834956	1.3760030352894028	0.31745903388406527	0.8550690522531443	1.4239547656676692	0.3787531107051156	0.8643589331642101	1.428366595555839	0.37371654181957537	1.164658710564015	1.4327606814504628	0.1870519292449233	0.7311439749193871	0.5172350812892601	0.1960128408975605	0.8884469881673422	0.9450561381809559	0.1926578208175498	1.0620839663966395	1.3672059666943563	0.16616657751960567	0.8708939431462565	1.410198450978965	0.11996326148536243	0.9488968675441134	1.4192189812169254	0.2098349774186105	1.1245473901006595	1.4241215296289176	0.28306864119438196	0.5497715090069177	-0.031037186678683947	0.269716648266683	0.39431836038620377	-0.23898383768315318	0.25920195692582904	0.3798937228619893	-0.10851934285253369	0.42771237935165524	0.5642633090316076	0.07448982543992307	0.453141840949977	0.5366329215926933	0.35275094908595694	0.283953224085974	0.4624684547362362	0.5182735575458052	0.17289944603443344	0.4931261216625008	0.5746367679772411	0.17006627700884064	0.4981265588597115	0.5996058126364273	0.20341140724291873	0.46322799492031647	0.6113470184591725	0.13342426213767336	0.6515023351599943	0.035793463814402286	0.08296861952496726	0.6257976411399631	0.30637367269658594	0.18100347757830554	0.47809419398798275	0.5044688303145223	0.20531305301970978	0.4820239305635428	0.5787533491291486	0.20257091037081393	0.4626390777495344	0.6019660784934165	0.19801971486312753	0.4800901962167201	0.5965424839036546
